<svg width="90" height="90" viewBox="0 0 90 90" fill="none" xmlns="http://www.w3.org/2000/svg">
<g clip-path="url(#clip0_413_993)">
<path d="M90 45C90 49.1843 89.4285 53.2356 88.3619 57.0775C87.3548 60.6988 85.9063 64.1362 84.0786 67.3274C83.6005 68.162 83.0969 68.9796 82.5679 69.7803C80.8704 72.3491 78.9155 74.7341 76.7399 76.8983L76.7343 76.904C75.6988 77.9338 74.6152 78.9127 73.4864 79.8378C72.2897 80.8167 71.0421 81.7361 69.7463 82.5905C62.9451 87.0803 54.851 89.768 46.1401 89.983C46.0722 89.9887 46.0015 89.9887 45.9308 89.9887H45.928C45.8601 89.9915 45.7893 89.9943 45.7186 89.9915C45.481 89.9972 45.2405 90 45 90C44.7595 90 44.5134 89.9972 44.2729 89.9943H44.2135C43.9504 89.9887 43.6901 89.983 43.427 89.9717C34.5209 89.6662 26.274 86.7748 19.4106 82.019C19.3965 82.0106 19.3823 81.9992 19.3682 81.9908C19.0315 81.7559 18.6948 81.5183 18.3638 81.2722C16.9549 80.2367 15.6083 79.1192 14.3295 77.9281C14.3097 77.9083 14.2899 77.8914 14.2701 77.8716C11.6871 75.4583 9.38985 72.7424 7.4321 69.7831C7.30196 69.5851 7.17465 69.3899 7.04734 69.189C5.17163 66.2524 3.62976 63.0837 2.46982 59.7369C0.86854 55.1198 0 50.1631 0 45C0 20.149 20.149 0 45 0C69.851 0 90 20.149 90 45Z" fill="#F9F1F2"/>
<path d="M73.9702 24.6584C73.5119 23.9822 73.0253 23.3457 72.5641 22.7742C69.4493 18.9039 66.06 15.2346 62.3849 11.998C63.5986 13.0675 67.4264 21.999 67.7886 24.6244C68.2837 28.2089 49.5124 33.5305 49.1758 35.3242C52.1124 36.75 54.6982 39.1548 56.506 42.0688C57.0832 42.9996 57.5839 43.9813 57.9885 45.0026C62.8037 40.9541 67.8565 37.2253 73.1186 33.836C74.9066 32.6846 76.3778 31.5897 75.9874 29.134C75.7412 27.6007 74.918 26.0475 73.9759 24.6612L73.9702 24.6584Z" fill="#7A5AF8"/>
<path d="M18.3012 24.6584C18.7595 23.9822 19.2461 23.3457 19.7073 22.7742C22.8221 18.9039 26.2114 15.2346 29.8864 11.998C28.6727 13.0675 24.8449 21.999 24.4828 24.6244C23.9877 28.2089 42.7589 33.5305 43.0956 35.3242C40.159 36.75 37.5732 39.1548 35.7653 42.0688C35.1882 42.9996 34.6875 43.9813 34.2829 45.0026C29.4677 40.9541 24.4149 37.2253 19.1528 33.836C17.3647 32.6846 15.8936 31.5897 16.284 29.134C16.5302 27.6007 17.3534 26.0475 18.2955 24.6612L18.3012 24.6584Z" fill="#6938EF"/>
<path d="M88.3615 57.078C87.3543 60.6992 85.9058 64.1366 84.0782 67.3279C83.6 68.1625 83.0965 68.9801 82.5674 69.7807C78.9433 70.8077 75.9642 74.876 73.4859 79.8382C72.2892 80.8171 71.0416 81.7366 69.7458 82.591C62.9446 87.0808 54.8505 89.7685 46.1396 89.9835L48.8641 34.7986C49.5912 34.3375 50.3692 33.9273 51.1868 33.5595C57.1082 30.9001 65.1485 30.6342 71.2962 32.111C69.726 32.507 66.382 33.8169 65.2192 35.7266C79.0423 35.9303 86.4433 45.4955 89.3375 51.4056C87.6598 51.1906 85.9822 50.9784 84.3073 50.7634C85.3626 51.6687 86.879 53.6491 88.3615 57.078V57.078Z" fill="#9B8AFB"/>
<path d="M42.9941 34.7986L45.7185 89.992C45.4809 89.9976 45.2404 90.0005 44.9999 90.0005C44.7594 90.0005 44.5133 89.9976 44.2728 89.9948H44.2134C43.9503 89.9891 43.69 89.9835 43.4269 89.9722C34.5208 89.6666 26.274 86.7753 19.4105 82.0195C16.5276 75.6455 12.9177 70.1598 8.31186 69.5799C8.02895 69.6223 7.73472 69.693 7.43201 69.7836C7.30187 69.5855 7.17455 69.3903 7.04724 69.1894C5.17154 66.2528 3.62967 63.0842 2.46973 59.7373C4.24076 54.6421 6.25226 51.8809 7.55366 50.7634C5.87599 50.9784 4.20115 51.1906 2.52348 51.4056C5.41767 45.4955 12.8158 35.9303 26.6417 35.7266C25.479 33.8169 22.1349 32.507 20.562 32.111C26.7125 30.6342 34.7528 30.9001 40.6713 33.5595C41.489 33.9273 42.267 34.3375 42.9941 34.7986V34.7986Z" fill="#5925DC"/>
<path d="M45.9275 35.1242V89.9893C45.8596 89.9922 45.7889 89.995 45.7181 89.9922C45.4805 89.9978 45.24 90.0007 44.9995 90.0007C44.7591 90.0007 44.5129 89.9978 44.2725 89.995H44.213C43.9499 89.9893 43.6896 89.9837 43.4265 89.9724C34.5205 89.6668 26.2736 86.7755 19.4101 82.0197C19.396 82.0112 19.3818 81.9999 19.3677 81.9914C19.031 81.7566 18.6944 81.5189 18.3634 81.2728C16.9545 80.2374 15.6078 79.1199 14.329 77.9288C14.6742 77.4648 14.991 77.0659 15.2598 76.7377L14.2696 77.8722C11.6866 75.459 9.38939 72.743 7.43164 69.7838C7.3015 69.5857 7.17419 69.3905 7.04688 69.1896C10.9199 58.6427 17.6872 53.1768 17.8966 53.0071L9.95238 57.1517C16.5669 43.5804 28.8396 40.0299 28.8396 40.0299L20.4003 39.8884C28.5935 35.1412 38.8603 35.2826 38.8603 35.2826L32.8824 32.8213C36.1133 32.8835 38.6906 33.1891 40.671 33.5597C44.0235 34.1849 45.6785 34.9969 45.9275 35.1242V35.1242Z" fill="#6938EF"/>
<path d="M84.0785 67.3281C83.6004 68.1627 83.0968 68.9803 82.5678 69.7809C80.8703 72.3498 78.9154 74.7347 76.7398 76.899L76.5983 76.7377C76.6436 76.7915 76.686 76.8452 76.7341 76.9046C75.6987 77.9344 74.6151 78.9133 73.4863 79.8385C72.2896 80.8173 71.0419 81.7368 69.7462 82.5912C62.945 87.081 54.8509 89.7687 46.14 89.9837C46.0721 89.9893 46.0014 89.9893 45.9307 89.9893V35.1242C46.1796 34.9969 47.8347 34.1849 51.1872 33.5597C53.1676 33.1891 55.7449 32.8835 58.9757 32.8213L52.9978 35.2826C52.9978 35.2826 63.2675 35.1412 71.4606 39.8884L63.0214 40.0299C63.0214 40.0299 75.2941 43.5804 81.9058 57.1517L73.9644 53.0071C74.1483 53.157 80.1404 57.9891 84.0785 67.3281V67.3281Z" fill="#7A5AF8"/>
<path d="M45.9276 77.484C55.14 77.484 62.6081 70.0159 62.6081 60.8035C62.6081 51.5912 55.14 44.123 45.9276 44.123C36.7152 44.123 29.2471 51.5912 29.2471 60.8035C29.2471 70.0159 36.7152 77.484 45.9276 77.484Z" fill="white"/>
<path d="M45.9283 71.1182C51.6251 71.1182 56.2432 66.5001 56.2432 60.8033C56.2432 55.1065 51.6251 50.4883 45.9283 50.4883C40.2315 50.4883 35.6133 55.1065 35.6133 60.8033C35.6133 66.5001 40.2315 71.1182 45.9283 71.1182Z" fill="#FEB173"/>
<path d="M45.9276 66.5212C49.0854 66.5212 51.6453 63.9614 51.6453 60.8036C51.6453 57.6458 49.0854 55.0859 45.9276 55.0859C42.7698 55.0859 40.21 57.6458 40.21 60.8036C40.21 63.9614 42.7698 66.5212 45.9276 66.5212Z" fill="#263238"/>
<path d="M57.8299 48.3129C50.6156 41.7296 39.4321 42.2416 32.8516 49.4531C30.1894 52.3699 28.6871 55.9374 28.3193 59.5841C41.3191 55.5244 53.4561 57.2445 63.5391 60.0792C63.2194 55.7281 61.3069 51.4844 57.8299 48.3129V48.3129Z" fill="#5925DC"/>
</g>
<defs>
<clipPath id="clip0_413_993">
<rect width="90" height="90" fill="white"/>
</clipPath>
</defs>
</svg>
